<svg id="vector" xmlns="http://www.w3.org/2000/svg" width="200" height="200" viewBox="0 0 1024 1024"><path fill="#FFDDDD" d="M512 512m-469.333333 0a469.333333 469.333333 0 1 0 938.666666 0 469.333333 469.333333 0 1 0-938.666666 0Z" id="path_0"/><g transform="translate(225, 225) scale(0.35, 0.6)" id="g_0"><path fill="#B9C8DA" d="M337.5,510.7L0,165.2 123.5,47.2 576.3,510.7 123.5,974.2 8.3,856.3 337.5,510.7z"/><path fill="#B9C8DA" d="M930.4,510.7L592.7,165.2l123.5,-118 452.8,463.5 -452.8,463.5L601,856.3l329.3,-345.5z"/><path fill="#FF0000" d="M1523.1,510.7l-337.6,-345.5 123.5,-118 452.8,463.5 -452.8,463.5 -115.3,-118 329.3,-345.5z"/></g></svg>